# xmcd
#
# Track frame offsets:
#	150
#	20058
#	37421
#	56246
#	70352
#	91666
#	110899
#	129650
#	151933
#	174239
#	193045
#	210520
#
# Disc length: 3033 seconds
#
# Revision: 2
# Processed by: cddbd v1.5.2PL0 Copyright (c) Steve Scherf et al.
# Submitted via: EasyCDDAExtractor 12.0.4.1
#
DISCID=af0bd70c
DTITLE=various artist - Everlasting Love Song
DYEAR=2007
DGENRE=Pop
TTITLE0=เกิดมาแค่รักกัน
TTITLE1=ไม่ต้องรู้ว่าเราคบกันแบบไหน
TTITLE2=ชีวิตที่ขาดเธอ
TTITLE3=ความทรงจำสีจาง
TTITLE4=แพ้กลางคืน
TTITLE5=รักไม่ช่วยอะไร
TTITLE6=คนเจ้าน้ำตา
TTITLE7=ก้อนหินก้อนนั้น
TTITLE8=จากคนรักเก่า
TTITLE9=เรื่องบนเตียง
TTITLE10=กรุณาพูดดังๆ
TTITLE11=ปากดี
EXTD=
EXTT0=
EXTT1=
EXTT2=
EXTT3=
EXTT4=
EXTT5=
EXTT6=
EXTT7=
EXTT8=
EXTT9=
EXTT10=
EXTT11=
PLAYORDER=
